<svg width="24" height="24" viewBox="0 0 24 24" fill="none" xmlns="http://www.w3.org/2000/svg">
<path d="M21.75 20.69L16.086 15.026C17.4471 13.3919 18.1258 11.2961 17.981 9.17438C17.8361 7.05268 16.8789 5.0685 15.3084 3.63459C13.7379 2.20068 11.675 1.42746 9.54893 1.47577C7.42284 1.52408 5.39723 2.3902 3.89347 3.89396C2.38971 5.39772 1.52359 7.42333 1.47528 9.54942C1.42697 11.6755 2.2002 13.7384 3.6341 15.3089C5.06801 16.8794 7.05219 17.8366 9.17389 17.9815C11.2956 18.1263 13.3914 17.4475 15.0255 16.0865L20.6895 21.7505L21.75 20.69ZM2.99996 9.75045C2.99996 8.41543 3.39585 7.11039 4.13754 6.00035C4.87924 4.89032 5.93345 4.02516 7.16685 3.51427C8.40025 3.00337 9.75745 2.8697 11.0668 3.13015C12.3762 3.3906 13.5789 4.03348 14.5229 4.97748C15.4669 5.92149 16.1098 7.12422 16.3703 8.43359C16.6307 9.74296 16.497 11.1002 15.9862 12.3336C15.4753 13.567 14.6101 14.6212 13.5001 15.3629C12.39 16.1046 11.085 16.5005 9.74996 16.5005C7.96036 16.4985 6.24463 15.7867 4.97919 14.5212C3.71375 13.2558 3.00195 11.5401 2.99996 9.75045Z" fill="#B8C0C6"/>
</svg>
